<svg width="195" height="39" viewBox="0 0 195 39" fill="none" xmlns="http://www.w3.org/2000/svg">
<g clip-path="url(#clip0_19991_3325)">
<path d="M30.5902 0.308838L18.7779 7.11806V28.3701L12.2604 32.162L5.70317 28.367V20.7796L12.2604 17.0213L16.4767 19.4756V13.3368L12.2237 10.9133L0.414429 17.7994V31.4209L12.2635 38.2701L24.0727 31.4209V10.1721L30.6302 6.37687L37.1843 10.1721V17.7256L30.6302 21.5546L26.377 19.0788V25.1868L30.5902 27.6256L42.5159 20.8165V7.11806L30.5902 0.308838Z" fill="#030712"/>
<path fill-rule="evenodd" clip-rule="evenodd" d="M99.8922 29.8124H105.187V0.680908H99.8922V29.8124ZM65.8526 9.10478C68.3621 9.10478 70.4425 10.1166 72.0881 12.1373C73.7365 14.1579 74.5576 16.6645 74.5576 19.657C74.5576 22.6494 73.7334 25.1561 72.0881 27.1767C70.4394 29.1973 68.3621 30.2091 65.8526 30.2091C64.0753 30.2091 62.5308 29.6587 61.2255 28.5546C59.9449 27.4257 59.004 25.9033 58.4004 23.9873V37.6857H53.1055V9.49847H58.4004V15.3235C59.001 13.4075 59.9449 11.8974 61.2255 10.7964C62.5339 9.66761 64.0753 9.10478 65.8526 9.10478ZM63.9281 25.3652C65.3653 25.3652 66.5818 24.827 67.5746 23.7505C68.5674 22.6494 69.0638 21.2839 69.0638 19.657C69.0638 18.03 68.5674 16.7168 67.5746 15.6403C66.5818 14.5393 65.3653 13.9857 63.9281 13.9857C62.3316 13.9857 61.0141 14.5239 59.9662 15.6003C58.9212 16.6768 58.3973 18.0269 58.3973 19.6539C58.3973 21.2808 58.9212 22.6464 59.9662 23.7474C61.011 24.824 62.3316 25.3621 63.9281 25.3621V25.3652ZM75.9641 19.657C75.9641 22.6494 76.9969 25.1561 79.062 27.1767C81.1273 29.1973 83.7043 30.2091 86.7897 30.2091C89.8754 30.2091 92.4524 29.1973 94.5175 27.1767C96.5829 25.1561 97.6154 22.6494 97.6154 19.657C97.6154 16.6645 96.5829 14.1579 94.5175 12.1373C92.4524 10.1166 89.8754 9.10478 86.7897 9.10478C83.7043 9.10478 81.1273 10.1166 79.062 12.1373C76.9969 14.1579 75.9641 16.6645 75.9641 19.657ZM82.9841 23.7505C81.9637 22.6494 81.4551 21.2839 81.4551 19.657C81.4551 18.03 81.9637 16.7168 82.9841 15.6403C84.0046 14.5393 85.273 13.9857 86.7897 13.9857C88.3065 13.9857 89.5751 14.5239 90.5954 15.6003C91.6158 16.6768 92.1246 18.0269 92.1246 19.6539C92.1246 21.2808 91.6158 22.6464 90.5954 23.7474C89.5751 24.824 88.3065 25.3621 86.7897 25.3621C85.273 25.3621 84.0046 24.824 82.9841 23.7474V23.7505ZM154.103 27.1767C152.038 25.1561 151.005 22.6494 151.005 19.657C151.005 16.6645 152.038 14.1579 154.103 12.1373C156.168 10.1166 158.745 9.10478 161.831 9.10478C164.916 9.10478 167.494 10.1166 169.559 12.1373C171.624 14.1579 172.657 16.6645 172.657 19.657C172.657 22.6494 171.624 25.1561 169.559 27.1767C167.494 29.1973 164.916 30.2091 161.831 30.2091C158.745 30.2091 156.171 29.1973 154.103 27.1767ZM156.493 19.657C156.493 21.2839 157.002 22.6494 158.022 23.7505C159.043 24.827 160.311 25.3652 161.828 25.3652C163.345 25.3652 164.613 24.827 165.634 23.7505C166.654 22.6494 167.163 21.2839 167.163 19.657C167.163 18.03 166.654 16.6768 165.634 15.6034C164.613 14.527 163.345 13.9888 161.828 13.9888C160.311 13.9888 159.043 14.5393 158.022 15.6434C157.002 16.7198 156.493 18.0577 156.493 19.66V19.657ZM186.749 9.10478C188.998 9.10478 190.803 9.89214 192.16 11.4668C193.545 13.0415 194.238 15.0498 194.238 17.4887V29.8093H188.943V18.4329C188.943 17.1196 188.526 16.0432 187.686 15.2036C186.85 14.364 185.805 13.9426 184.549 13.9426C183.136 13.9426 181.987 14.364 181.098 15.2036C180.21 16.0432 179.765 17.1196 179.765 18.4329V29.8093H174.471V9.49847H179.765V14.6961C180.29 12.9646 181.166 11.599 182.395 10.6026C183.651 9.6061 185.1 9.10788 186.749 9.10788V9.10478ZM117.906 24.3963L123.318 9.51691H128.692L117.554 37.7041H112.18L115.005 30.5381L106.728 9.51691H112.455L117.906 24.3963ZM143.749 9.49847V14.5885C142.646 11.2669 139.922 9.49847 136.297 9.49847C130.825 9.49847 127.589 14.2963 127.589 19.3402C127.589 24.384 130.8 29.5756 136.297 29.5756C139.922 29.5756 142.646 26.9522 143.749 23.6306V27.5272C143.749 29.1819 143.213 30.5443 142.141 31.6208C141.068 32.6973 139.763 33.2354 138.219 33.2354C136.126 33.2354 134.572 32.1868 133.552 30.0861L128.805 32.605C129.694 34.2595 130.963 35.582 132.611 36.5815C134.26 37.578 136.129 38.0763 138.219 38.0763C141.304 38.0763 143.881 37.0675 145.946 35.0438C148.012 33.0232 149.044 30.5167 149.044 27.5241V9.49847H143.749ZM142.22 23.2C141.2 24.2242 139.919 24.7348 138.378 24.7348C136.837 24.7348 135.632 24.2242 134.612 23.2C133.592 22.1512 133.083 20.8656 133.083 19.3433C133.083 17.8209 133.592 16.5476 134.612 15.5234C135.632 14.4993 136.886 13.9888 138.378 13.9888C139.87 13.9888 141.203 14.4993 142.22 15.5234C143.241 16.5199 143.749 17.7932 143.749 19.3433C143.749 20.8933 143.241 22.1789 142.22 23.2Z" fill="#030712"/>
</g>
<defs>
<clipPath id="clip0_19991_3325">
<rect width="194" height="38" fill="white" transform="translate(0.25 0.308838)"/>
</clipPath>
</defs>
</svg>
