<svg width="186" height="29" viewBox="0 0 186 29" fill="none" xmlns="http://www.w3.org/2000/svg">
<path d="M31.2201 22.3822L26.1255 27.9199C26.0144 28.043 25.8792 28.141 25.7287 28.208C25.578 28.2749 25.4153 28.3093 25.2508 28.3088H1.08225C0.968122 28.3057 0.857255 28.2695 0.762738 28.2046C0.668221 28.1397 0.593997 28.0487 0.548827 27.9423C0.503657 27.8361 0.489425 27.719 0.507811 27.6046C0.526196 27.4905 0.576433 27.3839 0.652591 27.2977L5.74717 21.7599C5.85824 21.6371 5.9934 21.5389 6.14402 21.4719C6.29464 21.405 6.45737 21.3706 6.62184 21.3711H30.7904C30.9046 21.3742 31.0154 21.4104 31.1099 21.4753C31.2044 21.5401 31.2787 21.6311 31.3238 21.7375C31.3689 21.8438 31.3832 21.9609 31.3648 22.0753C31.3465 22.1894 31.2962 22.296 31.2201 22.3822ZM26.1255 11.1977C26.0144 11.0748 25.8792 10.9767 25.7287 10.9097C25.578 10.8427 25.4153 10.8084 25.2508 10.8088H1.08225C0.968122 10.812 0.857255 10.8481 0.762738 10.9131C0.668221 10.978 0.593997 11.069 0.548827 11.1753C0.503657 11.2816 0.489425 11.3987 0.507811 11.513C0.526196 11.6272 0.576433 11.7337 0.652591 11.8199L5.74717 17.4199C5.85824 17.5428 5.9934 17.641 6.14402 17.708C6.29464 17.7749 6.45737 17.8093 6.62184 17.8088H30.7904C30.9046 17.8057 31.0154 17.7695 31.1099 17.7046C31.2044 17.6397 31.2787 17.5487 31.3238 17.4423C31.3689 17.3361 31.3832 17.219 31.3648 17.1046C31.3465 16.9905 31.2962 16.8839 31.2201 16.7977L26.1255 11.1977ZM1.08225 7.24661H25.2508C25.4153 7.24708 25.578 7.21272 25.7287 7.14575C25.8792 7.07879 26.0144 6.98069 26.1255 6.85773L31.2201 1.31995C31.2962 1.23372 31.3465 1.12721 31.3648 1.01298C31.3832 0.89875 31.3689 0.781573 31.3238 0.675275C31.2787 0.568978 31.2044 0.477997 31.1099 0.413069C31.0154 0.348141 30.9046 0.311977 30.7904 0.308842H6.62184C6.45737 0.308386 6.29464 0.34274 6.14402 0.409705C5.9934 0.47667 5.85824 0.574771 5.74717 0.697731L0.652591 6.2355C0.576433 6.32174 0.526196 6.42825 0.507811 6.54248C0.489425 6.65672 0.503657 6.7739 0.548827 6.88019C0.593997 6.98648 0.668221 7.07746 0.762738 7.14239C0.857255 7.20732 0.968122 7.24349 1.08225 7.24661Z" fill="#030712"/>
<path d="M60.5293 12.1311H47.6087V7.7755H63.8745V3.41995H47.578C47.0171 3.4179 46.4615 3.52834 45.9431 3.74494C45.4246 3.96153 44.9535 4.27999 44.557 4.68196C44.1605 5.08393 43.8462 5.56147 43.6326 6.08707C43.419 6.61266 43.31 7.17592 43.312 7.74439V12.1622C43.31 12.7306 43.419 13.2939 43.6326 13.8195C43.8462 14.3451 44.1605 14.8226 44.557 15.2246C44.9535 15.6266 45.4246 15.9451 45.9431 16.1616C46.4615 16.3782 47.0171 16.4886 47.578 16.4866H60.4986V20.8421H43.6189V25.1977H60.4986C61.63 25.1977 62.715 24.7421 63.515 23.9312C64.3151 23.1201 64.7645 22.0202 64.7645 20.8732V16.4555C64.7645 15.314 64.3194 14.2187 63.5259 13.4086C62.7325 12.5985 61.6553 12.1393 60.5293 12.1311Z" fill="#030712"/>
<path d="M85.5265 3.41995H72.5752C71.4438 3.41995 70.3588 3.87556 69.5587 4.68655C68.7587 5.49753 68.3093 6.59748 68.3093 7.74439V20.8732C68.3093 22.0202 68.7587 23.1201 69.5587 23.9312C70.3588 24.7421 71.4438 25.1977 72.5752 25.1977H85.5265C86.0872 25.1997 86.6429 25.0893 87.1614 24.8727C87.6799 24.6562 88.151 24.3376 88.5475 23.9357C88.944 23.5337 89.2581 23.0562 89.4719 22.5305C89.6855 22.0051 89.7944 21.4418 89.7924 20.8732V7.74439C89.7944 7.17592 89.6855 6.61266 89.4719 6.08707C89.2581 5.56147 88.944 5.08393 88.5475 4.68196C88.151 4.27999 87.6799 3.96153 87.1614 3.74494C86.6429 3.52834 86.0872 3.4179 85.5265 3.41995ZM85.5265 20.8421H72.6366V7.7755H85.5265V20.8421Z" fill="#030712"/>
<path d="M130.933 3.41995H118.288C117.727 3.4179 117.172 3.52834 116.653 3.74494C116.135 3.96153 115.664 4.27999 115.267 4.68196C114.871 5.08393 114.557 5.56147 114.343 6.08707C114.129 6.61266 114.02 7.17592 114.022 7.74439V25.1977H118.319V18.0421H130.902V25.1977H135.199V7.74439C135.199 6.59748 134.749 5.49753 133.949 4.68655C133.149 3.87556 132.064 3.41995 130.933 3.41995ZM130.933 13.6866H118.35V7.7755H130.933V13.6866Z" fill="#030712"/>
<path d="M181.234 3.41995H168.62C168.06 3.4179 167.503 3.52834 166.986 3.74494C166.467 3.96153 165.996 4.27999 165.599 4.68196C165.203 5.08393 164.888 5.56147 164.675 6.08707C164.462 6.61266 164.353 7.17592 164.354 7.74439V25.1977H168.62V18.0421H181.203V25.1977H185.5V7.74439C185.501 7.17592 185.393 6.61266 185.179 6.08707C184.966 5.56147 184.651 5.08393 184.255 4.68196C183.858 4.27999 183.387 3.96153 182.868 3.74494C182.351 3.52834 181.794 3.4179 181.234 3.41995ZM181.234 13.6866H168.62V7.7755H181.203L181.234 13.6866Z" fill="#030712"/>
<path d="M156.206 20.8421H154.487L148.349 5.28661C148.146 4.73627 147.781 4.26239 147.303 3.92868C146.826 3.59495 146.259 3.41741 145.679 3.41995H141.858C141.106 3.41995 140.383 3.72314 139.851 4.26283C139.319 4.80251 139.02 5.53449 139.02 6.29773V25.1977H143.316V7.7755H145.035L151.173 23.331C151.376 23.8789 151.738 24.351 152.213 24.6845C152.687 25.018 153.25 25.1971 153.828 25.1977H157.649C158.023 25.1997 158.393 25.1269 158.74 24.9832C159.086 24.8394 159.401 24.6277 159.666 24.3603C159.93 24.0929 160.142 23.775 160.285 23.4248C160.429 23.0747 160.503 22.6992 160.503 22.3199V3.41995H156.206V20.8421Z" fill="#030712"/>
<path d="M97.91 3.41992H93.6133V20.8733C93.6133 22.0202 94.0628 23.1201 94.8627 23.9312C95.6628 24.7421 96.7479 25.1977 97.8793 25.1977H110.8V20.8421H97.91V3.41992Z" fill="#030712"/>
</svg>
