<svg width="145" height="43" viewBox="0 0 145 43" fill="none" xmlns="http://www.w3.org/2000/svg">
<g clip-path="url(#clip0_19991_3339)">
<path d="M42.6471 21.3088C42.6471 9.71085 33.1002 0.308838 21.3235 0.308838C9.54686 0.308838 0 9.71085 0 21.3088C0 32.9068 9.54686 42.3088 21.3235 42.3088C33.1002 42.3088 42.6471 32.9068 42.6471 21.3088Z" fill="#030712"/>
<path fill-rule="evenodd" clip-rule="evenodd" d="M13.164 16.0898L28.1986 16.0168L24.5991 21.3592L33.0941 21.3187L29.4939 26.5716L14.3619 26.667L18.0182 21.362L9.55286 21.3587L13.164 16.0898Z" fill="white"/>
<path d="M53.3088 29.6153V25.7475L62.2515 14.9022H53.5211V11.1129H67.9302V14.6931L58.7752 25.7475H68.1159V29.6153H53.3088Z" fill="#030712"/>
<path d="M78.3069 23.9443H77.7496C77.272 23.9443 76.7855 23.9705 76.2902 24.0228C75.8125 24.0575 75.3791 24.136 74.99 24.258C74.6184 24.3799 74.3089 24.5628 74.0612 24.8067C73.8135 25.0332 73.6896 25.3381 73.6896 25.7214C73.6896 25.9653 73.7427 26.1743 73.8489 26.3486C73.9727 26.5228 74.1232 26.6622 74.3 26.7667C74.4769 26.8713 74.6803 26.9496 74.9103 27.0019C75.1403 27.0368 75.3614 27.0542 75.5737 27.0542C76.4583 27.0542 77.1305 26.819 77.5905 26.3486C78.0681 25.8608 78.3069 25.2075 78.3069 24.3886V23.9443ZM70.3196 18.378C71.098 17.6462 72.0002 17.0974 73.0263 16.7316C74.0701 16.3656 75.1314 16.1827 76.2106 16.1827C77.3251 16.1827 78.2627 16.3221 79.0234 16.6008C79.8018 16.8622 80.4298 17.2803 80.9074 17.8553C81.3851 18.4127 81.7301 19.127 81.9424 19.9982C82.1724 20.8519 82.2873 21.8711 82.2873 23.0558V29.6153H78.3069V28.2302H78.2273C77.8912 28.7702 77.3782 29.1885 76.6883 29.4846C76.016 29.7808 75.2819 29.9288 74.4858 29.9288C73.955 29.9288 73.4067 29.8592 72.8405 29.7198C72.2744 29.5804 71.7525 29.3539 71.2749 29.0403C70.8149 28.7268 70.4346 28.3086 70.1338 27.786C69.8331 27.2633 69.6827 26.6187 69.6827 25.8521C69.6827 24.9113 69.9393 24.1534 70.4523 23.5784C70.983 23.0035 71.6553 22.5593 72.469 22.2456C73.3005 21.932 74.2204 21.723 75.2288 21.6185C76.2372 21.5139 77.219 21.4616 78.1743 21.4616V21.2526C78.1743 20.608 77.9443 20.1376 77.4843 19.8414C77.0243 19.5278 76.4583 19.371 75.7861 19.371C75.1668 19.371 74.5654 19.5017 73.9816 19.763C73.4154 20.0244 72.929 20.3379 72.5221 20.7038L70.3196 18.378Z" fill="#030712"/>
<path d="M100.236 23.0558C100.236 23.9617 100.095 24.8328 99.8118 25.6691C99.5288 26.5054 99.1131 27.2458 98.5646 27.8904C98.034 28.5176 97.3794 29.0228 96.601 29.4062C95.8226 29.7894 94.9381 29.9811 93.9474 29.9811C93.1336 29.9811 92.3641 29.8243 91.6387 29.5107C90.9134 29.1797 90.3474 28.7354 89.9404 28.1779H89.8874V35.8872H85.5355V16.6008H89.6752V18.1949H89.7547C90.1617 17.6723 90.7188 17.2194 91.4265 16.836C92.1518 16.4353 93.001 16.235 93.974 16.235C94.9293 16.235 95.7961 16.4179 96.5745 16.7837C97.3528 17.1496 98.0074 17.6462 98.5381 18.2734C99.0865 18.9005 99.5022 19.6323 99.7853 20.4686C100.086 21.2874 100.236 22.1498 100.236 23.0558ZM96.0172 23.0558C96.0172 22.6377 95.9464 22.2282 95.8049 21.8275C95.681 21.4268 95.4865 21.0783 95.2211 20.7821C94.9734 20.4686 94.6551 20.216 94.2658 20.0243C93.8766 19.8326 93.4255 19.7368 92.9125 19.7368C92.4172 19.7368 91.9749 19.8326 91.5858 20.0243C91.1965 20.216 90.8604 20.4686 90.5774 20.7821C90.312 21.0957 90.0997 21.453 89.9404 21.8536C89.7989 22.2543 89.7282 22.6637 89.7282 23.0819C89.7282 23.5 89.7989 23.9094 89.9404 24.3101C90.0997 24.7109 90.312 25.068 90.5774 25.3816C90.8604 25.6953 91.1965 25.9478 91.5858 26.1395C91.9749 26.3312 92.4172 26.4269 92.9125 26.4269C93.4255 26.4269 93.8766 26.3312 94.2658 26.1395C94.6551 25.9478 94.9734 25.6953 95.2211 25.3816C95.4865 25.068 95.681 24.7109 95.8049 24.3101C95.9464 23.892 96.0172 23.4739 96.0172 23.0558Z" fill="#030712"/>
<path d="M117.676 23.0558C117.676 23.9617 117.535 24.8328 117.252 25.6691C116.969 26.5054 116.553 27.2458 116.004 27.8904C115.474 28.5176 114.82 29.0228 114.041 29.4062C113.263 29.7894 112.378 29.9811 111.388 29.9811C110.574 29.9811 109.804 29.8243 109.078 29.5107C108.353 29.1797 107.787 28.7354 107.381 28.1779H107.328V35.8872H102.976V16.6008H107.116V18.1949H107.194C107.602 17.6723 108.159 17.2194 108.866 16.836C109.592 16.4353 110.441 16.235 111.414 16.235C112.37 16.235 113.236 16.4179 114.015 16.7837C114.793 17.1496 115.448 17.6462 115.979 18.2734C116.527 18.9005 116.942 19.6323 117.225 20.4686C117.526 21.2874 117.676 22.1498 117.676 23.0558ZM113.457 23.0558C113.457 22.6377 113.387 22.2282 113.245 21.8275C113.121 21.4268 112.926 21.0783 112.661 20.7821C112.413 20.4686 112.096 20.216 111.705 20.0243C111.316 19.8326 110.865 19.7368 110.352 19.7368C109.858 19.7368 109.415 19.8326 109.026 20.0243C108.637 20.216 108.3 20.4686 108.018 20.7821C107.752 21.0957 107.54 21.453 107.381 21.8536C107.239 22.2543 107.168 22.6637 107.168 23.0819C107.168 23.5 107.239 23.9094 107.381 24.3101C107.54 24.7109 107.752 25.068 108.018 25.3816C108.3 25.6953 108.637 25.9478 109.026 26.1395C109.415 26.3312 109.858 26.4269 110.352 26.4269C110.865 26.4269 111.316 26.3312 111.705 26.1395C112.096 25.9478 112.413 25.6953 112.661 25.3816C112.926 25.068 113.121 24.7109 113.245 24.3101C113.387 23.892 113.457 23.4739 113.457 23.0558Z" fill="#030712"/>
<path d="M129.518 21.6185C129.518 20.939 129.296 20.3553 128.854 19.8675C128.429 19.3797 127.783 19.1358 126.917 19.1358C126.492 19.1358 126.103 19.2055 125.749 19.3448C125.395 19.4668 125.086 19.641 124.82 19.8675C124.555 20.094 124.343 20.364 124.184 20.6777C124.025 20.9739 123.937 21.2874 123.918 21.6185H129.518ZM133.525 23.2649C133.525 23.4391 133.525 23.6133 133.525 23.7876C133.525 23.9618 133.515 24.1272 133.498 24.284H123.918C123.954 24.6499 124.06 24.981 124.237 25.2771C124.431 25.5733 124.67 25.8347 124.954 26.0611C125.254 26.2702 125.582 26.4357 125.936 26.5577C126.307 26.6796 126.687 26.7406 127.076 26.7406C127.766 26.7406 128.349 26.6187 128.827 26.3748C129.305 26.1134 129.694 25.7824 129.996 25.3817L133.02 27.2633C132.401 28.1518 131.579 28.84 130.552 29.3278C129.544 29.7982 128.368 30.0334 127.023 30.0334C126.033 30.0334 125.094 29.8853 124.211 29.5891C123.326 29.2755 122.547 28.8312 121.876 28.2564C121.221 27.664 120.699 26.9409 120.309 26.0873C119.938 25.2335 119.752 24.258 119.752 23.1603C119.752 22.0976 119.938 21.1394 120.309 20.2856C120.682 19.4145 121.185 18.6828 121.822 18.0905C122.459 17.4806 123.211 17.0102 124.077 16.6793C124.944 16.3482 125.882 16.1827 126.891 16.1827C127.863 16.1827 128.757 16.3482 129.57 16.6793C130.385 16.9928 131.083 17.4546 131.667 18.0643C132.251 18.6741 132.702 19.4145 133.02 20.2856C133.356 21.1568 133.525 22.1499 133.525 23.2649Z" fill="#030712"/>
<path d="M144.794 20.1027C144.6 20.0504 144.405 20.0156 144.211 19.9982C144.034 19.9808 143.857 19.972 143.68 19.972C143.096 19.972 142.601 20.0765 142.194 20.2856C141.805 20.4947 141.486 20.7474 141.239 21.0435C141.008 21.3397 140.841 21.662 140.734 22.0104C140.629 22.3589 140.575 22.6637 140.575 22.9251V29.6152H136.223V16.6008H140.417V18.4824H140.469C140.806 17.8204 141.283 17.2803 141.902 16.8621C142.521 16.444 143.238 16.235 144.051 16.235C144.228 16.235 144.397 16.2437 144.555 16.2611C144.732 16.2786 144.874 16.3046 144.98 16.3395L144.794 20.1027Z" fill="#030712"/>
</g>
<defs>
<clipPath id="clip0_19991_3339">
<rect width="145" height="42" fill="white" transform="translate(0 0.308838)"/>
</clipPath>
</defs>
</svg>
